HIERARCHY
ROOT Reference
{
  OFFSET 0 0 0
  CHANNELS 6 Xposition Yposition Zposition Zrotation Xrotation Yrotation
  JOINT Hips
  {
    OFFSET 251.394 724.17 483.536
    CHANNELS 3 Zrotation Xrotation Yrotation
    JOINT RightUpLeg
    {
      OFFSET -0.450515 -23.4426 -1.37224
      CHANNELS 3 Zrotation Xrotation Yrotation
      JOINT RightLeg
      {
        OFFSET 112.821 0.0872427 -0.321027
        CHANNELS 3 Zrotation Xrotation Yrotation
        JOINT RightFoot
        {
          OFFSET 105.718 0.000193788 0.0213165
          CHANNELS 3 Zrotation Xrotation Yrotation
          JOINT RightToeBase
          {
            OFFSET 37.638 -0.000116272 0.00224792
            CHANNELS 3 Zrotation Xrotation Yrotation
            JOINT RightToeEnd
            {
              OFFSET 21.2112 0.114605 -0.000138184
              CHANNELS 3 Zrotation Xrotation Yrotation
              End Site
              {
                OFFSET 0 0 0
              }
            }
          }
        }
      }
    }
    JOINT LeftUpLeg
    {
      OFFSET -0.449508 23.4315 -1.37054
      CHANNELS 3 Zrotation Xrotation Yrotation
      JOINT LeftLeg
      {
        OFFSET 112.821 -0.0485242 -0.372458
        CHANNELS 3 Zrotation Xrotation Yrotation
        JOINT LeftFoot
        {
          OFFSET 105.716 0.00496094 -0.0229443
          CHANNELS 3 Zrotation Xrotation Yrotation
          JOINT LeftToeBase
          {
            OFFSET 37.639 0 0.00158905
            CHANNELS 3 Zrotation Xrotation Yrotation
            JOINT LeftToeEnd
            {
              OFFSET 21.2113 -0.125031 -0.00017438
              CHANNELS 3 Zrotation Xrotation Yrotation
              End Site
              {
                OFFSET 0 0 0
              }
            }
          }
        }
      }
    }
    JOINT Spine
    {
      OFFSET -5.01225 0.000463591 -9.60395
      CHANNELS 3 Zrotation Xrotation Yrotation
      JOINT Spine1
      {
        OFFSET 26.0222 -0.000271301 -0.000155029
        CHANNELS 3 Zrotation Xrotation Yrotation
        JOINT Spine2
        {
          OFFSET 27.173 -0.000155029 -0.000310058
          CHANNELS 3 Zrotation Xrotation Yrotation
          JOINT Spine3
          {
            OFFSET 36.3953 -0.000232544 7.75146e-005
            CHANNELS 3 Zrotation Xrotation Yrotation
            JOINT Neck
            {
              OFFSET 36.4331 0 -3.00261
              CHANNELS 3 Zrotation Xrotation Yrotation
              JOINT Head
              {
                OFFSET 23.0407 -0.000232544 -0.000310058
                CHANNELS 3 Zrotation Xrotation Yrotation
                End Site
                {
                  OFFSET 0 0 0
                }
              }
            }
            JOINT LeftShoulder
            {
              OFFSET 20.1317 6.74168 -12.6061
              CHANNELS 3 Zrotation Xrotation Yrotation
              JOINT LeftArm
              {
                OFFSET 34.2172 -5.81359e-005 7.75146e-005
                CHANNELS 3 Zrotation Xrotation Yrotation
                JOINT LeftForeArm
                {
                  OFFSET 65.4129 -0.0821605 0.0585235
                  CHANNELS 3 Zrotation Xrotation Yrotation
                  JOINT LeftHand
                  {
                    OFFSET 67.3883 0.0359667 0.0112396
                    CHANNELS 3 Zrotation Xrotation Yrotation
                    JOINT LeftHandThumb1
                    {
                      OFFSET 8.78386 2.85353 -6.05362
                      CHANNELS 3 Zrotation Xrotation Yrotation
                      JOINT LeftHandThumb2
                      {
                        OFFSET 8.25498 -0.000116272 -0.000174407
                        CHANNELS 3 Zrotation Xrotation Yrotation
                        JOINT LeftHandThumb3
                        {
                          OFFSET 7.24822 0.000310058 5.81358e-005
                          CHANNELS 3 Zrotation Xrotation Yrotation
                          JOINT LeftHandThumb4
                          {
                            OFFSET 7.0004 -3.87568e-005 -0.000310057
                            CHANNELS 3 Zrotation Xrotation Yrotation
                            End Site
                            {
                              OFFSET 0 0 0
                            }
                          }
                        }
                      }
                    }
                    JOINT LeftHandIndex1
                    {
                      OFFSET 24.0991 -1.01537 -5.40558
                      CHANNELS 3 Zrotation Xrotation Yrotation
                      JOINT LeftHandIndex2
                      {
                        OFFSET 7.26759 -0.000290679 -0.000465086
                        CHANNELS 3 Zrotation Xrotation Yrotation
                        JOINT LeftHandIndex3
                        {
                          OFFSET 7.13628 -1.93787e-005 0.000232543
                          CHANNELS 3 Zrotation Xrotation Yrotation
                          JOINT LeftHandIndex4
                          {
                            OFFSET 5.46699 9.68932e-005 -0.000387571
                            CHANNELS 3 Zrotation Xrotation Yrotation
                            End Site
                            {
                              OFFSET 0 0 0
                            }
                          }
                        }
                      }
                    }
                    JOINT LeftHandMiddle1
                    {
                      OFFSET 24.4604 -2.52837 0.918567
                      CHANNELS 3 Zrotation Xrotation Yrotation
                      JOINT LeftHandMiddle2
                      {
                        OFFSET 7.41627 -5.81359e-005 0.000116271
                        CHANNELS 3 Zrotation Xrotation Yrotation
                        JOINT LeftHandMiddle3
                        {
                          OFFSET 8.76829 3.87573e-005 -7.75142e-005
                          CHANNELS 3 Zrotation Xrotation Yrotation
                          JOINT LeftHandMiddle4
                          {
                            OFFSET 6.07588 -0.00013565 -5.81356e-005
                            CHANNELS 3 Zrotation Xrotation Yrotation
                            End Site
                            {
                              OFFSET 0 0 0
                            }
                          }
                        }
                      }
                    }
                    JOINT LeftHandRing1
                    {
                      OFFSET 22.465 -1.97467 6.3466
                      CHANNELS 3 Zrotation Xrotation Yrotation
                      JOINT LeftHandRing2
                      {
                        OFFSET 7.36666 -0.000232544 0.000387571
                        CHANNELS 3 Zrotation Xrotation Yrotation
                        JOINT LeftHandRing3
                        {
                          OFFSET 8.07624 -0.000465087 -0.000203475
                          CHANNELS 3 Zrotation Xrotation Yrotation
                          JOINT LeftHandRing4
                          {
                            OFFSET 6.04433 0.00013565 3.87571e-005
                            CHANNELS 3 Zrotation Xrotation Yrotation
                            End Site
                            {
                              OFFSET 0 0 0
                            }
                          }
                        }
                      }
                    }
                    JOINT LeftHandPinky1
                    {
                      OFFSET 19.5278 0.352933 10.4295
                      CHANNELS 3 Zrotation Xrotation Yrotation
                      JOINT LeftHandPinky2
                      {
                        OFFSET 6.16525 5.8136e-005 -0.000251921
                        CHANNELS 3 Zrotation Xrotation Yrotation
                        JOINT LeftHandPinky3
                        {
                          OFFSET 6.14448 -0.000329434 -0.00510625
                          CHANNELS 3 Zrotation Xrotation Yrotation
                          JOINT LeftHandPinky4
                          {
                            OFFSET 4.98555 0.000116272 0.000116271
                            CHANNELS 3 Zrotation Xrotation Yrotation
                            End Site
                            {
                              OFFSET 0 0 0
                            }
                          }
                        }
                      }
                    }
                  }
                }
              }
            }
            JOINT RightShoulder
            {
              OFFSET 20.1309 -6.74152 -12.6063
              CHANNELS 3 Zrotation Xrotation Yrotation
              JOINT RightArm
              {
                OFFSET 34.2171 7.75146e-005 7.75146e-005
                CHANNELS 3 Zrotation Xrotation Yrotation
                JOINT RightForeArm
                {
                  OFFSET 65.4492 0.242543 -0.176501
                  CHANNELS 3 Zrotation Xrotation Yrotation
                  JOINT RightHand
                  {
                    OFFSET 67.3888 -0.0867388 0.0597442
                    CHANNELS 3 Zrotation Xrotation Yrotation
                    JOINT RightHandThumb1
                    {
                      OFFSET 8.78307 -2.85357 -6.05302
                      CHANNELS 3 Zrotation Xrotation Yrotation
                      JOINT RightHandThumb2
                      {
                        OFFSET 8.25493 -7.75145e-005 0
                        CHANNELS 3 Zrotation Xrotation Yrotation
                        JOINT RightHandThumb3
                        {
                          OFFSET 7.24797 -0.000174408 0.000155029
                          CHANNELS 3 Zrotation Xrotation Yrotation
                          JOINT RightHandThumb4
                          {
                            OFFSET 7.00062 0 0
                            CHANNELS 3 Zrotation Xrotation Yrotation
                            End Site
                            {
                              OFFSET 0 0 0
                            }
                          }
                        }
                      }
                    }
                    JOINT RightHandIndex1
                    {
                      OFFSET 24.0991 1.01525 -5.40578
                      CHANNELS 3 Zrotation Xrotation Yrotation
                      JOINT RightHandIndex2
                      {
                        OFFSET 7.26773 7.75144e-005 0.000232543
                        CHANNELS 3 Zrotation Xrotation Yrotation
                        JOINT RightHandIndex3
                        {
                          OFFSET 7.13572 -0.000310058 3.87571e-005
                          CHANNELS 3 Zrotation Xrotation Yrotation
                          JOINT RightHandIndex4
                          {
                            OFFSET 5.46717 0 3.87572e-005
                            CHANNELS 3 Zrotation Xrotation Yrotation
                            End Site
                            {
                              OFFSET 0 0 0
                            }
                          }
                        }
                      }
                    }
                    JOINT RightHandMiddle1
                    {
                      OFFSET 24.4603 2.52899 0.918547
                      CHANNELS 3 Zrotation Xrotation Yrotation
                      JOINT RightHandMiddle2
                      {
                        OFFSET 7.41641 -0.000116272 -0.000116272
                        CHANNELS 3 Zrotation Xrotation Yrotation
                        JOINT RightHandMiddle3
                        {
                          OFFSET 8.76765 -3.87577e-005 0.000232543
                          CHANNELS 3 Zrotation Xrotation Yrotation
                          JOINT RightHandMiddle4
                          {
                            OFFSET 6.07609 -0.000193787 -0.000116271
                            CHANNELS 3 Zrotation Xrotation Yrotation
                            End Site
                            {
                              OFFSET 0 0 0
                            }
                          }
                        }
                      }
                    }
                    JOINT RightHandRing1
                    {
                      OFFSET 22.465 1.97571 6.34696
                      CHANNELS 3 Zrotation Xrotation Yrotation
                      JOINT RightHandRing2
                      {
                        OFFSET 7.36684 0.000193786 0.000155029
                        CHANNELS 3 Zrotation Xrotation Yrotation
                        JOINT RightHandRing3
                        {
                          OFFSET 8.07614 -0.000271301 0
                          CHANNELS 3 Zrotation Xrotation Yrotation
                          JOINT RightHandRing4
                          {
                            OFFSET 6.04468 0.000232543 0
                            CHANNELS 3 Zrotation Xrotation Yrotation
                            End Site
                            {
                              OFFSET 0 0 0
                            }
                          }
                        }
                      }
                    }
                    JOINT RightHandPinky1
                    {
                      OFFSET 19.5277 -0.352346 10.4296
                      CHANNELS 3 Zrotation Xrotation Yrotation
                      JOINT RightHandPinky2
                      {
                        OFFSET 6.16508 0 0.000232543
                        CHANNELS 3 Zrotation Xrotation Yrotation
                        JOINT RightHandPinky3
                        {
                          OFFSET 6.14396 -0.000155048 -0.0048834
                          CHANNELS 3 Zrotation Xrotation Yrotation
                          JOINT RightHandPinky4
                          {
                            OFFSET 4.98577 -7.75146e-005 -7.75143e-005
                            CHANNELS 3 Zrotation Xrotation Yrotation
                            End Site
                            {
                              OFFSET 0 0 0
                            }
                          }
                        }
                      }
                    }
                  }
                }
              }
            }
          }
        }
      }
    }
  }
}
MOTION
Frames:	5
Frame Time:	0.0333333
0 0 0 -90 -7.01671e-015 -180 -4.38886 -8.24644 -110.391 -144.141 -37.2931 -94.2763 0.387883 -0.0345707 -97.5634 -6.26549 6.1558 23.0443 7.37633 -1.7516 39.8483 -3.77693e-005 -2.81689e-006 -86.4974 -178.937 41.8559 -104.512 -1.13245 -0.206514 -80.4456 11.191 -3.9755 13.0377 -7.98975 -1.653 35.1527 4.86649e-005 -7.8254e-005 -86.4974 -0.0523265 0.247185 126.216 11.2825 7.73326 -9.79602 15.2802 4.79315 -11.9621 0.757699 -9.24283 -8.35706 8.82123 53.9019 2.69314 0.541398 15.5881 74.63 94.0241 24.6117 -17.5317 72.699 29.5355 33.2756 -12.2268 15.8682 45.4977 -127.869 -52.6991 -148.985 -164.628 -29.5212 144.326 0.00038739 -9.20749e-005 5.82149 0.000189285 1.84068e-005 13.1219 0.000180996 -0.00134968 -0.000154851 88.7021 82.6476 -60.4872 -0.000134227 -0.000501211 41.7781 0.00176196 -0.000245307 49.7922 -0.000782252 0.000324724 -1.17643 9.78733 86.2721 34.4085 0.000279962 -0.000185953 54.0825 0.00108844 -0.00039347 32.2424 -0.000493759 -0.000328916 -1.25172 -27.6309 84.3026 81.3272 0.000504047 -0.000862547 38.5396 0.00189075 0.000180526 40.7851 -0.000737719 -0.000260894 -1.1031 -0.0619684 84.8257 42.982 0.00154873 -0.000685496 46.5917 0.000655664 0.000104369 42.3601 -0.0025386 0.00113214 -1.02798 -61.7359 -24.6088 9.30128 -21.829 47.3973 56.8536 6.07987 35.6692 42.6365 108.948 78.7674 -122.945 158.173 52.6291 152.972 -0.000115569 7.53163e-005 10.9862 0.000136717 0.000106074 22.3099 -0.00024414 -4.57764e-005 -180 -102.368 -74.0465 -91.8927 -0.000190381 -2.75027e-005 52.1844 0.000114118 -4.68181e-005 48.533 -3.05175e-005 -0.000137329 -180 -84.6175 -84.7031 -52.0985 -0.000197532 -4.57258e-005 65.9844 -6.57108e-005 0.000227995 43.8298 3.05175e-005 -6.10353e-005 180 -16.1754 -83.9656 33.3852 -6.33559e-005 0.000218686 47.1384 -4.32717e-005 -0.000112686 49.4781 -6.10351e-005 -0.000244141 -180 2.94674 -81.1725 44.6111 -0.000181816 0.000363328 48.5225 1.72153e-005 2.69118e-005 41.2135 -6.1035e-005 -0.000198365 -180 
0 0 0 -90 -7.01671e-015 -180 -4.2707 -12.5646 -110.411 -143.384 -37.3905 -93.4196 0.418748 -0.0469139 -98.7414 -7.03984 5.30555 22.3408 7.51843 -1.73248 40.2613 -3.72294e-005 -9.79526e-006 -86.4974 -178.345 41.3773 -104.974 -1.17064 -0.205414 -80.8299 10.0428 -3.25725 12.7125 -8.2357 -1.58044 34.4055 4.83893e-005 -0.000112377 -86.4974 -0.0527607 0.251111 126.123 10.9371 7.87681 -9.77081 15.2412 4.86678 -11.9275 0.689731 -8.90158 -8.40184 8.71595 53.9266 2.98156 0.688335 15.4922 74.539 94.3354 24.6324 -17.3977 72.094 29.1144 33.6226 -12.8898 16.3316 45.6974 -129.476 -52.059 -150.97 -164.717 -29.8298 144.274 0.000387939 -8.49532e-005 5.80936 0.000192975 2.12644e-005 13.3095 0.000180996 -0.00135607 -0.000154851 88.9816 82.5907 -60.7585 -0.000131654 -0.000494494 41.9821 0.00176331 -0.000239486 49.8283 -0.000771628 0.000279251 -1.16149 9.9094 86.2639 34.1831 0.000275882 -0.000213063 54.2613 0.00108078 -0.000371417 32.203 -0.000493724 -0.000326206 -1.24078 -27.1428 84.3243 80.7737 0.000503394 -0.000864471 38.5415 0.00187659 0.000209427 40.7922 -0.000731098 -0.000282173 -1.09217 0.506128 84.7973 42.2072 0.00154778 -0.000682714 46.5833 0.000603718 0.000200008 42.2496 -0.00260174 0.00115721 -1.00782 -61.1646 -24.5268 9.24756 -21.2805 48.0975 56.8351 5.94907 35.6244 42.688 98.252 76.9236 -112.904 158.423 52.6151 152.705 -0.000112801 7.40194e-005 10.8937 0.000138561 0.000105805 22.3627 -0.00024414 -7.6294e-005 -180 -102.425 -74.1326 -91.6711 -0.000190449 -2.32809e-005 52.2221 0.000112256 -5.00157e-005 48.5848 -3.05175e-005 -0.000137329 -180 -83.9635 -84.7633 -51.4034 -0.000200877 -0.000117408 65.9844 -6.20842e-005 0.000224158 43.6008 3.05175e-005 -7.62941e-005 180 -16.1754 -83.9656 33.3687 -5.62843e-005 0.000222655 47.0073 -3.9937e-005 -0.000120572 49.35 -6.10351e-005 -0.000289917 -180 2.6424 -81.2035 44.068 -0.00018281 0.000365169 48.4802 2.52872e-005 3.68171e-005 41.0866 -6.1035e-005 -0.000228882 -180 
0 0 0 -90 -7.01671e-015 -180 -4.15686 -16.9405 -110.48 -142.538 -37.4208 -92.5707 0.448628 -0.060404 -99.9273 -7.36547 5.31672 22.1559 7.63981 -1.75511 40.2767 -3.68373e-005 -1.60928e-005 -86.4974 -178.013 40.9851 -105.418 -1.18572 -0.1927 -81.5503 9.70509 -3.05186 12.7959 -8.48069 -1.50466 33.6586 4.95874e-005 -0.000181011 -86.4974 -0.0532488 0.25511 126.052 10.7226 8.02565 -9.72486 15.243 4.95568 -11.8956 0.61444 -8.53504 -8.49374 8.70963 53.7798 3.14044 0.709035 15.517 74.2025 94.5616 24.664 -17.168 71.4876 28.5129 33.6122 -13.5672 16.7273 46.3951 -130.883 -51.2634 -152.586 -164.807 -30.1383 144.221 0.000388806 -8.01891e-005 5.79723 0.000195937 2.27368e-005 13.4971 0.000180996 -0.00136973 -0.000154851 89.1969 82.5471 -60.969 -0.000122926 -0.000506053 42.1667 0.00176256 -0.000232724 49.8645 -0.00076702 0.000231733 -1.14655 10.01 86.2564 33.9628 0.000280098 -0.000226417 54.4401 0.00107317 -0.000351205 32.1637 -0.000494516 -0.000324721 -1.22984 -26.6504 84.3455 80.2159 0.000499524 -0.000862886 38.5435 0.00186468 0.000236246 40.7992 -0.000728728 -0.000305734 -1.08123 1.0669 84.7684 41.4397 0.00154381 -0.000682547 46.575 0.000597941 0.000209587 42.1249 -0.00266231 0.00118673 -0.987662 -60.8809 -24.4756 9.07618 -21.0202 48.7953 57.2683 5.73449 35.7675 42.708 88.4261 74.8314 -103.842 158.673 52.6003 152.439 -0.000112352 7.26792e-005 10.8012 0.000140456 0.000102803 22.4155 -0.00024414 -0.000137329 -180 -102.482 -74.2188 -91.4486 -0.000192914 -1.39549e-005 52.2598 0.000110855 -5.24787e-005 48.6366 -3.05175e-005 -0.000152588 -180 -83.2938 -84.8227 -50.6926 -0.00020334 3.31226e-005 65.9844 -6.10136e-005 0.000216623 43.3718 3.05175e-005 -9.15529e-005 180 -16.1754 -83.9656 33.3524 -6.39104e-005 0.000221551 46.8763 -3.65433e-005 -0.000121236 49.2219 -6.10351e-005 -0.000366212 -180 2.335 -81.234 43.522 -0.000183984 0.000364819 48.4379 9.47552e-006 2.4918e-005 40.9598 -6.1035e-005 -0.000320435 -180 
0 0 0 -90 -7.01671e-015 -180 -4.002 -21.4731 -110.503 -141.96 -37.3561 -91.8098 0.478193 -0.0750734 -101.104 -7.46753 5.10684 22.0452 7.76207 -1.82631 40.0327 -3.65239e-005 -2.99738e-005 -86.4974 -178.424 40.8126 -105.56 -1.19506 -0.17219 -82.5853 9.13997 -2.79462 13.405 -8.72459 -1.43536 33.0008 5.64931e-005 -4.26486e-005 -86.4974 -0.0539801 0.25898 126.03 10.5541 8.12133 -9.66737 15.1576 5.02367 -11.9174 0.529762 -8.13369 -8.66828 9.22374 53.8752 2.74744 0.599463 15.3775 73.9874 94.8985 24.6911 -16.9785 70.8218 27.7373 33.2324 -14.6558 17.2141 47.7401 -132.481 -50.031 -154.365 -164.897 -30.4467 144.167 0.000384169 -7.24167e-005 5.7851 0.00019848 2.41767e-005 13.6847 0.000180996 -0.00139799 -0.000154851 89.4098 82.5035 -61.1771 -0.000120054 -0.000521359 42.3513 0.00176764 -0.000240071 49.8925 -0.000749544 0.000190042 -1.13161 10.1098 86.2488 33.7433 0.000286214 -0.000212485 54.6035 0.00108096 -0.000363552 32.1183 -0.000494466 -0.000323272 -1.2189 -26.1543 84.3663 79.6544 0.000500334 -0.000861086 38.5454 0.00185257 0.000266661 40.8063 -0.000721231 -0.000327454 -1.07029 1.62033 84.7387 40.6795 0.00155501 -0.000696038 46.5636 0.000593249 0.000221484 42.0001 -0.0027255 0.00121177 -0.967505 -60.323 -24.3887 8.96122 -20.9405 49.2629 57.5989 5.41398 36.2225 43.1456 81.7267 72.3586 -97.8679 158.922 52.5848 152.173 -0.000110824 7.23244e-005 10.7087 0.000139964 0.000103202 22.4683 -0.00024414 -1.52588e-005 -180 -102.537 -74.305 -91.2253 -0.000192861 -3.87484e-006 52.2975 0.000112564 -4.89698e-005 48.6885 -3.05175e-005 -0.000152588 -180 -82.6084 -84.8813 -49.9661 -0.00020607 3.58692e-005 65.9844 -5.93734e-005 0.000212871 43.1427 3.05175e-005 -0.000137329 180 -16.1754 -83.9656 33.336 -6.38762e-005 0.000219709 46.7452 -3.28308e-005 -0.000125659 49.0938 -6.10351e-005 -0.000213623 -180 2.02472 -81.2641 42.973 -0.000184666 0.000363621 48.3955 1.00764e-005 2.94588e-005 40.8329 -6.10351e-005 -0.000152588 -180 
0 0 0 -90 -7.01671e-015 -180 -3.86381 -25.692 -110.523 -141.214 -37.4671 -91.2653 0.50685 -0.0881541 -101.999 -8.16919 4.00402 21.7501 7.89631 -1.81777 40.3013 -3.62603e-005 -5.74279e-005 -86.4974 -179.013 40.6631 -105.398 -1.21501 -0.147807 -83.8426 8.3481 -2.70094 13.9788 -8.96534 -1.3916 32.5513 6.48536e-005 -4.17029e-005 -86.4974 -0.0544368 0.262863 125.953 10.4719 8.22481 -9.62505 15.0236 5.01329 -11.8075 0.491416 -7.96277 -8.64953 10.1313 53.9093 1.91582 0.459526 15.5204 73.757 95.2477 24.7261 -16.7251 70.2184 26.7836 32.571 -15.7542 17.3253 49.4492 -133.706 -48.8676 -155.576 -164.988 -30.7551 144.113 0.000386353 -6.50035e-005 5.77298 0.000196274 2.32219e-005 13.8343 0.000180996 -0.00145279 -0.000154851 89.6203 82.4597 -61.3829 -0.000106663 -0.000546674 42.5206 0.00176169 -0.000232128 49.915 -0.00074061 0.000143748 -1.11667 10.2092 86.2413 33.5242 0.000266588 -0.000225538 54.7514 0.00108814 -0.000378413 32.0729 -0.000493566 -0.000323315 -1.20797 -25.7211 84.3897 79.1453 0.000496557 -0.000858738 38.5473 0.00185226 0.000279734 40.8107 -0.000715413 -0.00034894 -1.05936 2.14455 84.7169 39.9369 0.00156449 -0.000709953 46.5521 0.000588723 0.00022933 41.8753 -0.00278523 0.00124062 -0.947344 -59.8298 -24.2971 8.71792 -20.4223 49.8025 57.4294 5.23783 36.2048 43.7119 79.8038 69.8724 -96.5071 159.172 52.5686 151.907 -0.000107106 6.9539e-005 10.6162 0.000143924 0.000102578 22.5211 -0.00024414 -3.05176e-005 -180 -102.592 -74.3913 -91.0011 -0.000195573 6.34491e-006 52.3352 0.000112834 -4.72e-005 48.7404 -3.05175e-005 -0.000167847 -180 -81.9069 -84.9392 -49.2236 -0.000208166 3.24247e-005 65.9844 -5.87297e-005 0.000211325 42.9137 3.05175e-005 -0.000213623 180 -16.1753 -83.9656 33.3197 -6.26598e-005 0.000223645 46.6142 -3.06723e-005 -0.000127127 48.9657 -6.10351e-005 -0.000213623 -180 1.71153 -81.2938 42.4211 -0.000187704 0.000367992 48.3532 1.7734e-006 2.29915e-005 40.7061 -6.10351e-005 -0.000152588 -180 
